Coordinates
version=1
nRows=8
nColumns=63
inDegrees=yes

Units are S.I. units (second, meters, Newtons, ...)
If the header above contains a line with 'inDegrees', this indicates whether rotational values are in degrees (yes) or radians (no).

endheader
time	pelvis_tilt	pelvis_list	pelvis_rotation	pelvis_tx	pelvis_ty	pelvis_tz	hip_flexion_r	hip_adduction_r	hip_rotation_r	knee_angle_r	knee_angle_r_beta	ankle_angle_r	subtalar_angle_r	mtp_angle_r	hip_flexion_l	hip_adduction_l	hip_rotation_l	knee_angle_l	knee_angle_l_beta	ankle_angle_l	subtalar_angle_l	mtp_angle_l	L5_S1_Flex_Ext	L5_S1_Lat_Bending	L5_S1_axial_rotation	L4_L5_Flex_Ext	L4_L5_Lat_Bending	L4_L5_axial_rotation	L3_L4_Flex_Ext	L3_L4_Lat_Bending	L3_L4_axial_rotation	L2_L3_Flex_Ext	L2_L3_Lat_Bending	L2_L3_axial_rotation	L1_L2_Flex_Ext	L1_L2_Lat_Bending	L1_L2_axial_rotation	L1_T12_Flex_Ext	L1_T12_Lat_Bending	L1_T12_axial_rotation	Abs_r3	Abs_r2	Abs_r1	Abs_t1	Abs_t2	neck_flexion	neck_bending	neck_rotation	arm_flex_r	arm_add_r	arm_rot_r	elbow_flex_r	pro_sup_r	wrist_flex_r	wrist_dev_r	arm_flex_l	arm_add_l	arm_rot_l	elbow_flex_l	pro_sup_l	wrist_flex_l	wrist_dev_l
      0.00000000	      9.54833303	     -4.94779034	     94.79159995	     -0.45261091	      0.88064541	      0.06341186	     12.75614655	    -20.92507506	    -69.79921778	     42.87213427	      0.74825990	     19.56310809	    -19.78293358	      0.00000000	     51.68508167	     29.89414890	     39.76072680	    108.71793340	      1.89748589	     50.95876879	     19.49939257	      0.00000000	      0.08934621	      0.17958420	     11.50839763	      0.16592485	      0.23884699	     12.22767248	      0.14678689	      0.43664102	     12.22767248	      0.10211379	      0.43664102	     10.06984793	      0.08296689	      0.36620810	      9.35057307	      0.05105243	      0.27817593	      8.63129822	      0.63819106	      2.03149239	     64.00625509	      0.00000000	      0.00000000	     27.41826964	    -29.26332043	    -43.67084789	      7.59747900	    -18.17627970	   -100.39523473	      7.05518685	    -47.02612837	     17.68263351	      5.00000810	      0.70040990	     -6.28181115	    -84.10350005	      2.49187081	    -50.85180488	     17.68263351	      5.00000810
      0.03333333	     10.11100667	     -5.30141319	     95.48090871	     -0.44878083	      0.88177721	      0.06130536	     13.47708642	    -19.91186357	    -69.78207445	     43.96820064	      0.76738987	     21.16071872	    -19.77559130	      0.00000000	     53.66321759	     29.90066668	     39.75957952	    110.54820433	      1.92943015	     46.41199854	     19.46651967	      0.00000000	      0.11401956	      0.20265601	     11.39431771	      0.21174572	      0.26953249	     12.10646257	      0.18732274	      0.49273781	     12.10646257	      0.13031296	      0.49273781	      9.97002800	      0.10587856	      0.41325613	      9.25788314	      0.06515078	      0.31391415	      8.54573828	      0.81443032	      2.29248527	     63.37177682	      0.00000000	      0.00000000	     27.46202605	    -29.25214847	    -43.69374525	      8.07739128	    -18.30764621	   -100.24881194	      7.29179616	    -47.01188311	     17.69093405	      5.00000785	      1.34323946	     -6.64475930	    -84.06709240	      2.79624252	    -50.81463320	     17.69093405	      5.00000785
      0.06666667	     10.26442747	     -5.49557557	     95.40504733	     -0.44373164	      0.88352159	      0.05905042	     14.25213642	    -19.21461516	    -69.76043030	     45.41486134	      0.79263886	     23.31155649	    -19.76419871	      0.00000000	     54.74954556	     29.90738014	     39.77305096	    111.75136453	      1.95042925	     43.23831475	     19.40914578	      0.00000000	      0.04221421	      0.17947241	     11.39641070	      0.07839600	      0.23869831	     12.10868637	      0.06935372	      0.43636922	     12.10868637	      0.04824662	      0.43636922	      9.97185936	      0.03920011	      0.36598014	      9.25958370	      0.02412120	      0.27800277	      8.54730803	      0.30153185	      2.03022783	     63.38341741	      0.00000000	      0.00000000	     27.47554071	    -29.24419721	    -43.70738437	      9.11081477	    -18.66126703	   -100.12325685	      7.42517756	    -47.00243686	     17.69352173	      5.00000777	      2.26681436	     -7.22709326	    -84.01246619	      3.16594953	    -50.77707114	     17.69352173	      5.00000777
      0.10000000	      8.32550444	     -7.60797390	     92.42197561	     -0.43664766	      0.88415215	      0.05608172	     17.55420002	    -21.58485487	    -69.67881720	     48.74887507	      0.85082838	     24.96381546	    -19.74524519	      0.00000000	     55.48661841	     29.91429764	     39.83518010	    111.86861414	      1.95247565	     44.34042711	     19.41539499	      0.00000000	      0.05791853	     -0.17969338	     11.82605414	      0.10756051	     -0.23899220	     12.56518252	      0.09515436	     -0.43690649	     12.56518252	      0.06619509	     -0.43690649	     10.34779737	      0.05378315	     -0.36643075	      9.60866899	      0.03309465	     -0.27834505	      8.86954060	      0.41370630	     -2.03272750	     65.77296529	      0.00000000	      0.00000000	     27.53164687	    -28.98551549	    -43.76151129	     10.07076243	    -17.89650544	    -99.57341038	      7.38268268	    -46.96985209	     17.70816934	      5.00000734	      3.15237093	     -9.07482397	    -84.08019281	      3.32739327	    -50.62033021	     17.70816934	      5.00000734
      0.13333333	      8.20113452	     -8.89823113	     95.99048245	     -0.43449867	      0.88418237	      0.05440368	     19.56045871	    -23.07837690	    -69.63724467	     52.57028839	      0.91752462	     26.11968034	    -19.74789571	      0.00000000	     58.65491515	     29.91722872	     39.82976238	    113.30845998	      1.97760570	     43.31836508	     19.24626549	      0.00000000	      0.06732172	     -0.32148390	     11.09638207	      0.12502317	     -0.42757359	     11.78990595	      0.11060286	     -0.78165596	     11.78990595	      0.07694200	     -0.78165596	      9.70933431	      0.06251495	     -0.65556997	      9.01581043	      0.03846763	     -0.49797856	      8.32228655	      0.48087234	     -3.63669019	     61.71474817	      0.00000000	      0.00000000	     27.56830985	    -28.74788800	    -43.79339734	     11.09715375	    -18.10784510	    -99.07615673	      7.12919986	    -46.95735666	     17.72034705	      5.00000701	      3.91890727	    -10.35688496	    -84.08080356	      3.32921375	    -50.48349914	     17.72034705	      5.00000701
      0.16666667	      7.65628752	     -9.53147893	     90.70177344	     -0.42790977	      0.88555237	      0.05136072	     21.28764159	    -22.36676193	    -69.43832982	     54.42925791	      0.94996976	     27.55019077	    -19.71109796	      0.00000000	     57.26299901	     29.92481042	     39.86305864	    115.00697713	      2.00725041	     40.98375434	     19.27218266	      0.00000000	      0.08004957	     -0.39505460	     11.94071248	      0.14866005	     -0.52542262	     12.68700701	      0.13151343	     -0.96053575	     12.68700701	      0.09148865	     -0.96053575	     10.44812342	      0.07433403	     -0.80559534	      9.70182889	      0.04574032	     -0.61193957	      8.95553436	      0.57178606	     -4.46893663	     66.41066058	      0.00000000	      0.00000000	     27.58361315	    -28.50963395	    -43.81092243	     11.13370791	    -18.59315418	    -98.62551018	      7.21459073	    -46.92593702	     17.72803182	      5.00000680	      3.78503588	    -11.15748105	    -84.16647797	      3.27425961	    -50.40912709	     17.72803182	      5.00000680
      0.20000000	      8.15323769	    -10.01047554	     93.73078195	     -0.42862868	      0.88590030	      0.05079207	     22.50156485	    -22.62379668	    -69.37933027	     56.94966171	      0.99395910	     28.70697684	    -19.71275529	      0.00000000	     57.07626722	     29.92593093	     39.86403657	    112.69429035	      1.96688641	     42.62382893	     19.24716654	      0.00000000	      0.07795213	     -0.34804540	     11.30342729	      0.14476489	     -0.46290038	     12.00989149	      0.12806755	     -0.84623759	     12.00989149	      0.08909149	     -0.84623759	      9.89049888	      0.07238634	     -0.70973418	      9.18403467	      0.04454185	     -0.53912233	      8.47757047	      0.55680425	     -3.93715918	     62.86627154	      0.00000000	      0.00000000	     27.59085518	    -28.71216595	    -43.80915838	     10.53771652	    -20.13216382	    -81.64142304	      4.63313117	    -47.06733728	     18.02457486	      5.00000117	      3.53364424	    -11.15458515	    -83.19260957	      3.14528066	    -47.90083151	     18.02457486	      5.00000117
      0.23333333	      9.64359630	    -10.03007765	     96.96670150	     -0.43006463	      0.88600428	      0.05015469	     23.32274271	    -21.53972910	    -69.37753167	     58.77748370	      1.02586062	     29.91544574	    -19.72013540	      0.00000000	     57.97513379	     29.92693073	     39.85018127	    113.29255753	      1.97732815	     41.05490732	     19.06122024	      0.00000000	      0.13240619	     -0.16956939	     10.67213759	      0.24589153	     -0.22552728	     11.33914618	      0.21753012	     -0.41229100	     11.33914618	      0.15132703	     -0.41229100	      9.33812039	      0.12295238	     -0.34578589	      8.67111179	      0.07565690	     -0.26266298	      8.00410319	      0.94576415	     -1.91820280	     59.35522761	      0.00000000	      0.00000000	     27.59730513	    -28.87495193	    -43.79961898	     10.08410504	    -21.57609159	    -81.68487544	      4.51138755	    -47.14832568	     18.03137530	      5.00000114	      2.96270153	    -10.76629454	    -83.14736116	      3.12242465	    -47.86996905	     18.03137530	      5.00000114
